<svg xmlns="http://www.w3.org/2000/svg" viewBox="0 0 24 24" fill="none" stroke="#3B82F6" stroke-width="2" stroke-linecap="round" stroke-linejoin="round">
  <path d="M5 18C5 16.8954 5.89543 16 7 16H17C18.1046 16 19 16.8954 19 18V18C19 19.1046 18.1046 20 17 20H7C5.89543 20 5 19.1046 5 18V18Z" />
  <path d="M7 9H11V13H7V9Z" />
  <path d="M13 9H17V13H13V9Z" />
  <path d="M2 8C2 7.44772 2.44772 7 3 7H21C21.5523 7 22 7.44772 22 8V8C22 8.55228 21.5523 9 21 9H3C2.44772 9 2 8.55228 2 8V8Z" />
  <path d="M3 5C3 4.44772 3.44772 4 4 4H20C20.5523 4 21 4.44772 21 5V5C21 5.55228 20.5523 6 20 6H4C3.44772 6 3 5.55228 3 5V5Z" />
</svg>